<mxfile host="app.diagrams.net" modified="2023-06-19T03:42:37.606Z" agent="Mozilla/5.0 (Macintosh; Intel Mac OS X 10_15_7) AppleWebKit/605.1.15 (KHTML, like Gecko) Version/16.5 Safari/605.1.15" version="21.5.0" etag="zQRhaSjsAgWrzGJamJ4M" type="github">
  <diagram name="第 1 页" id="C_Q9uBoe70iyHMwB7I5d">
    <mxGraphModel>
      <root>
        <mxCell id="0" />
        <mxCell id="1" parent="0" />
      </root>
    </mxGraphModel>
  </diagram>
</mxfile>
